#!OML:ASF X:\für Bonn\!DataBase\2005_08_10_Bjorn_Final\c3d\bjorn.ASF
:FULLY-SPECIFIED
:DEGREES
79
root 0.55891 19.0595 1.27956 -175.627 5.77646 -178.577
lowerback -18.7749 1.07717 0.586449
upperback 1.56559 1.1682 1.84045
thorax 12.3117 0.542782 2.05879
lowerneck 24.3519 -9.81882 2.22408
upperneck 21.3329 -6.79671 -5.8481
head 2.91867 -1.17919 -1.9179
rclavicle 2.07357e-014 2.94201e-014
rhumerus -1432.2 -66.24 1459.59
rradius 27.321
rwrist 1.89592
rhand -29.5844 2.31019
rfingers 7.12502
rthumb -2.91613 -27.6496
lclavicle 2.07357e-014 2.94201e-014
lhumerus -4.07282 52.5092 -22.4773
lradius 27.9329
lwrist -19.019
lhand -28.2326 11.0492
lfingers 7.12502
lthumb -1.61053 41.0229
rfemur -11.3257 -4.65771 14.0066
rtibia 30.0059
rfoot -18.8203 14.4095
rtoes -24.1594
lfemur -6.32587 4.95553 -14.5923
ltibia 27.6519
lfoot -18.4234 -6.03954
ltoes -7.22726
80
root 0.557084 19.055 1.26798 -175.633 5.94177 -178.576
lowerback -18.9886 1.05277 0.536728
upperback 1.84667 1.12245 1.89997
thorax 12.7585 0.505879 2.15498
lowerneck 24.9208 -9.73697 2.04587
upperneck 21.1601 -6.67977 -5.76268
head 2.79245 -1.11399 -1.85011
rclavicle 1.2393e-015 8.74653e-015
rhumerus -1439.8 -64.4195 1465.31
rradius 27.7905
rwrist -1.04905
rhand -30.3764 1.81839
rfingers 7.12502
rthumb -3.68097 -28.1296
lclavicle 1.2393e-015 8.74653e-015
lhumerus -9.41071 49.6341 -25.1167
lradius 28.3939
lwrist -17.4989
lhand -28.5222 11.1259
lfingers 7.12502
lthumb -1.8903 41.0972
rfemur -11.3371 -4.73015 13.9749
rtibia 30.0464
rfoot -18.847 14.6233
rtoes -24.1161
lfemur -6.23378 4.99282 -14.619
ltibia 27.6415
lfoot -18.5643 -5.93518
ltoes -7.31712
81
root 0.555226 19.0503 1.25837 -175.661 6.10569 -178.553
lowerback -19.1867 1.01732 0.483371
upperback 2.15231 1.05907 2.00181
thorax 13.2274 0.458301 2.2963
lowerneck 25.5824 -9.62619 1.82796
upperneck 20.7967 -6.57276 -5.72758
head 2.58278 -1.06692 -1.78832
rclavicle 1.92542e-014 -1.43125e-014
rhumerus -1446.32 -62.0557 1469.79
rradius 28.2359
rwrist -3.99774
rhand -31.0572 1.11185
rfingers 7.12502
rthumb -4.3384 -28.8237
lclavicle 1.92542e-014 -1.43125e-014
lhumerus -14.2143 46.542 -26.8288
lradius 28.7333
lwrist -16.4263
lhand -28.8974 11.2155
lfingers 7.12502
lthumb -2.25265 41.1834
rfemur -11.3269 -4.83424 13.97
rtibia 30.0828
rfoot -18.8814 14.798
rtoes -24.1514
lfemur -6.12529 5.04253 -14.6161
ltibia 27.6381
lfoot -18.7097 -5.81369
ltoes -7.48071
82
root 0.553139 19.0442 1.25114 -175.689 6.27289 -178.549
lowerback -19.3797 1.00472 0.452069
upperback 2.46994 1.0267 2.0502
thorax 13.7114 0.427959 2.37495
lowerneck 26.2519 -9.52961 1.73323
upperneck 20.3314 -6.48782 -5.70168
head 2.32997 -1.02944 -1.74883
rclavicle 1.51387e-014 -4.37326e-015
rhumerus -1452.11 -58.932 1473.19
rradius 28.7224
rwrist -7.03905
rhand -31.5108 0.279113
rfingers 7.12502
rthumb -4.77633 -29.647
lclavicle 1.51387e-014 -4.37326e-015
lhumerus -18.3834 43.1374 -27.6544
lradius 28.9193
lwrist -15.1687
lhand -29.0693 11.2855
lfingers 7.12502
lthumb -2.41862 41.2516
rfemur -11.3184 -4.93084 13.9363
rtibia 30.1128
rfoot -18.8684 15.0322
rtoes -23.9054
lfemur -6.03848 5.13376 -14.6316
ltibia 27.6433
lfoot -18.809 -5.76422
ltoes -7.45085
83
root 0.550372 19.0409 1.24591 -175.705 6.42638 -178.525
lowerback -19.5788 0.994791 0.454172
upperback 2.80736 0.991233 2.092
thorax 14.2271 0.398703 2.42756
lowerneck 26.9252 -9.43314 1.67175
upperneck 19.767 -6.42563 -5.70593
head 2.03881 -1.00886 -1.72402
rclavicle -1.21507e-014 -1.07344e-014
rhumerus -1456.98 -55.6391 1475.4
rradius 29.1365
rwrist -9.75365
rhand -31.8998 -0.41753
rfingers 7.12502
rthumb -5.15199 -30.3349
lclavicle -1.21507e-014 -1.07344e-014
lhumerus -22.079 39.5907 -27.6633
lradius 29.0734
lwrist -13.2572
lhand -29.0353 11.3404
lfingers 7.12502
lthumb -2.38583 41.3068
rfemur -11.3306 -5.07735 13.9302
rtibia 30.1362
rfoot -18.8896 15.2304
rtoes -23.923
lfemur -5.97559 5.16523 -14.6343
ltibia 27.6578
lfoot -18.9391 -5.63147
ltoes -7.60179
84
root 0.546924 19.0368 1.24321 -175.744 6.56602 -178.48
lowerback -19.7378 0.965937 0.450772
upperback 3.15328 0.930427 2.16643
thorax 14.7336 0.356554 2.51217
lowerneck 27.5381 -9.31755 1.57844
upperneck 19.2264 -6.3519 -5.71814
head 1.76735 -0.986158 -1.70066
rclavicle -3.4191e-014 -5.1684e-015
rhumerus -1460.86 -52.1257 1476.36
rradius 29.5783
rwrist -13.1143
rhand -32.8884 -1.45693
rfingers 7.12502
rthumb -6.10649 -31.3489
lclavicle -3.4191e-014 -5.1684e-015
lhumerus -25.4391 35.9892 -26.9149
lradius 29.0746
lwrist -11.6786
lhand -29.3144 11.6619
lfingers 7.12502
lthumb -2.65533 41.6251
rfemur -11.3139 -5.18895 13.9444
rtibia 30.1458
rfoot -18.8611 15.4624
rtoes -23.7556
lfemur -5.90397 5.1772 -14.6125
ltibia 27.6866
lfoot -19.0815 -5.52388
ltoes -7.7782
85
root 0.544098 19.0314 1.2429 -175.813 6.71711 -178.412
lowerback -19.8606 0.957877 0.500766
upperback 3.5239 0.888683 2.21293
thorax 15.253 0.329303 2.54081
lowerneck 28.1263 -9.21638 1.5869
upperneck 18.6242 -6.29317 -5.76835
head 1.47138 -0.96958 -1.70766
rclavicle -8.00108e-015 -4.13472e-014
rhumerus -1464.38 -49.3641 1476.74
rradius 29.8176
rwrist -15.604
rhand -33.8027 -2.16495
rfingers 7.12502
rthumb -6.98916 -32.0296
lclavicle -8.00108e-015 -4.13472e-014
lhumerus -28.5515 32.8789 -25.6054
lradius 29.2126
lwrist -10.1908
lhand -29.7053 12.7175
lfingers 7.12502
lthumb -3.03285 42.6756
rfemur -11.2664 -5.24294 13.9861
rtibia 30.1521
rfoot -18.8337 15.6282
rtoes -23.386
lfemur -5.80336 5.21964 -14.5578
ltibia 27.7209
lfoot -19.2054 -5.4134
ltoes -7.78741
86
root 0.53955 19.0277 1.24554 -175.875 6.82292 -178.37
lowerback -19.9855 0.932262 0.52931
upperback 3.91037 0.8307 2.25534
thorax 15.798 0.293508 2.57308
lowerneck 28.6173 -9.08913 1.56761
upperneck 18.0245 -6.22766 -5.80181
head 1.19139 -0.958252 -1.70795
rclavicle -4.5472e-015 -1.31198e-014
rhumerus -1467.63 -47.0571 1476.57
rradius 29.9476
rwrist -16.9523
rhand -34.4123 -2.69394
rfingers 7.12502
rthumb -7.57752 -32.5382
lclavicle -4.5472e-015 -1.31198e-014
lhumerus -31.531 30.4243 -23.8286
lradius 29.5174
lwrist -8.8349
lhand -29.5747 14.6301
lfingers 7.12502
lthumb -2.90676 44.5901
rfemur -11.227 -5.39215 13.9962
rtibia 30.1467
rfoot -18.7872 15.8544
rtoes -23.1588
lfemur -5.75019 5.26809 -14.5269
ltibia 27.7773
lfoot -19.3093 -5.34662
ltoes -7.93501
